<svg 
 xmlns="http://www.w3.org/2000/svg"
 xmlns:xlink="http://www.w3.org/1999/xlink"
 width="11px" height="20px">
<path fill-rule="evenodd"  fill="rgb(13, 159, 176)"
 d="M3.323,11.670 C3.251,11.670 1.668,11.670 0.948,11.670 C0.564,11.670 0.444,11.526 0.444,11.167 C0.444,10.209 0.444,9.227 0.444,8.269 C0.444,7.886 0.588,7.766 0.948,7.766 L3.323,7.766 C3.323,7.694 3.323,6.305 3.323,5.658 C3.323,4.700 3.491,3.790 3.971,2.952 C4.475,2.90 5.195,1.515 6.106,1.179 C6.706,0.964 7.306,0.868 7.954,0.868 L10.305,0.868 C10.641,0.868 10.785,1.12 10.785,1.347 L10.785,4.77 C10.785,4.413 10.641,4.556 10.305,4.556 C9.657,4.556 9.9,4.556 8.361,4.581 C7.714,4.581 7.378,4.892 7.378,5.563 C7.354,6.281 7.378,6.976 7.378,7.718 L10.161,7.718 C10.545,7.718 10.689,7.862 10.689,8.245 L10.689,11.143 C10.689,11.526 10.569,11.646 10.161,11.646 C9.297,11.646 7.450,11.646 7.378,11.646 L7.378,19.454 C7.378,19.861 7.258,20.5 6.826,20.5 C5.818,20.5 4.835,20.5 3.827,20.5 C3.467,20.5 3.323,19.861 3.323,19.502 C3.323,16.987 3.323,11.742 3.323,11.670 L3.323,11.670 Z"/>
</svg>