<svg 
 xmlns="http://www.w3.org/2000/svg"
 xmlns:xlink="http://www.w3.org/1999/xlink"
 width="20px" height="20px">
<path fill-rule="evenodd"  fill="rgb(13, 159, 176)"
 d="M19.750,13.913 C19.620,16.754 18.283,18.336 16.513,19.23 C15.211,19.527 13.941,19.524 10.259,19.524 C6.670,19.524 4.158,19.765 2.313,17.922 C0.503,16.112 0.710,13.694 0.710,9.978 C0.710,6.348 0.476,3.872 2.313,2.35 C3.413,0.936 4.777,0.562 6.323,0.490 C8.83,0.412 12.437,0.408 14.195,0.490 C17.792,0.655 19.592,2.689 19.750,6.43 C19.828,7.802 19.833,12.155 19.750,13.913 ZM18.88,9.978 C18.88,7.428 18.78,7.126 18.33,6.119 C17.833,1.706 14.504,2.150 10.261,2.150 L10.225,2.126 C7.671,2.126 7.373,2.138 6.358,2.174 C1.943,2.400 2.394,5.568 2.394,9.966 C2.394,13.216 2.152,15.359 3.493,16.694 C4.658,17.862 6.255,17.803 10.236,17.803 C14.102,17.803 15.774,17.910 16.978,16.706 C18.162,15.517 18.88,13.911 18.88,9.978 ZM15.356,6.28 C14.724,6.28 14.211,5.516 14.211,4.883 C14.211,4.250 14.724,3.737 15.356,3.737 C15.989,3.737 16.502,4.250 16.502,4.883 C16.502,5.516 15.989,6.28 15.356,6.28 ZM10.259,14.880 C7.552,14.880 5.356,12.687 5.356,9.978 C5.356,7.272 7.549,5.76 10.259,5.76 C12.966,5.76 15.162,7.269 15.162,9.978 C15.162,12.685 12.968,14.880 10.259,14.880 ZM10.259,6.797 C8.501,6.797 7.76,8.221 7.76,9.978 C7.76,11.736 8.500,13.160 10.259,13.160 C12.18,13.160 13.442,11.736 13.441,9.978 C13.441,8.221 12.17,6.797 10.259,6.797 Z"/>
</svg>