<svg 
 xmlns="http://www.w3.org/2000/svg"
 xmlns:xlink="http://www.w3.org/1999/xlink"
 width="21px" height="21px">
<path fill-rule="evenodd"  fill="rgb(13, 159, 176)"
 d="M20.279,20.15 L20.279,20.15 L16.146,20.15 L16.146,13.521 C16.146,11.974 16.114,9.989 13.992,9.989 C11.839,9.989 11.509,11.671 11.509,13.410 L11.509,20.15 L7.372,20.15 L7.372,6.676 L11.345,6.676 L11.345,8.495 L11.403,8.495 C11.955,7.447 13.307,6.341 15.322,6.341 C19.512,6.341 20.284,9.103 20.284,12.687 L20.284,20.15 L20.279,20.15 ZM2.704,4.857 C1.379,4.857 0.305,3.760 0.305,2.435 C0.305,1.111 1.379,0.36 2.704,0.36 C4.28,0.36 5.102,1.111 5.103,2.435 C5.103,3.760 4.28,4.857 2.704,4.857 ZM4.777,20.15 L0.634,20.15 L0.634,6.677 L4.777,6.677 L4.777,20.15 Z"/>
</svg>